# xmcd
#
# Track frame offsets:
#	150
#	13763
#	25902
#	45961
#	61292
#	75672
#	89656
#	104358
#	117854
#	131530
#	144920
#	159507
#	171581
#	183775
#
# Disc length: 2637 seconds
#
# Revision: 0
# Processed by: cddbd v1.4PL0 Copyright (c) Steve Scherf et al.
# Submitted via: EasyCDDAExtractor 5.0.0.0
#
DISCID=b00a4b0e
DTITLE=Various Artist - Mr Music Country 12 2003
DYEAR=1900
DGENRE=Country
TTITLE0=Martin Eden/Pop-a-top
TTITLE1=Carlene Carter/Rockin' little Christmas
TTITLE2=Gary Josey/20 years ago today
TTITLE3=Ken Holloway/Heaven or hell
TTITLE4=Jacob Lyda/She showed me a little bit more
TTITLE5=Lamar Morris/That's easy for you to say
TTITLE6=Billy Keeble/When it's Christmas time in Texas
TTITLE7=Patty Loveless/Santa Train
TTITLE8=Billy Dee/Rodeo cowboys
TTITLE9=The Tractors/Christmas times a comin'
TTITLE10=James Segrest/The front porch light
TTITLE11=Suzy Bogguss/Two step 'round the Christmas tree
TTITLE12=Brooks and Dunn/Hangin' 'round the mistletoe
TTITLE13=Lacy J. Dalton/Silver bells
EXTD=
EXTT0=
EXTT1=
EXTT2=
EXTT3=
EXTT4=
EXTT5=
EXTT6=
EXTT7=
EXTT8=
EXTT9=
EXTT10=
EXTT11=
EXTT12=
EXTT13=
PLAYORDER=
